<?xml version="1.0" encoding="utf-8"?>
<!DOCTYPE svg PUBLIC "-//W3C//DTD SVG 1.1//EN" "http://www.w3.org/Graphics/SVG/1.1/DTD/svg11.dtd">
<svg style="width:308px;height:308px;" version="1.1" id="图形" xmlns="http://www.w3.org/2000/svg" xmlns:xlink="http://www.w3.org/1999/xlink" x="0px" y="0px" width="1024px" height="1024px" viewBox="0 0 1024 1024" enable-background="new 0 0 1024 1024" xml:space="preserve">
  <path class="svgpath" data-index="path_0" fill="#00bb9c" d="M512 0C229.696 0 0 229.696 0 512c0 282.368 229.632 512 512 512s512-229.632 512-512C1024 229.696 794.368 0 512 0L512 0zM759.104 427.52l-294.144 297.344c-0.064 0.064-0.192 0.128-0.32 0.192-0.128 0.064-0.128 0.192-0.192 0.32-2.368 2.304-5.248 3.648-8 5.248-1.344 0.768-2.432 1.92-3.904 2.496-4.416 1.792-9.088 2.688-13.76 2.688-4.672 0-9.408-0.896-13.888-2.752-1.472-0.64-2.624-1.856-4.032-2.624-2.688-1.536-5.568-2.88-7.872-5.184-0.064-0.064-0.128-0.192-0.192-0.32-0.064-0.128-0.192-0.128-0.32-0.192L267.84 576C253.696 561.472 254.08 538.176 268.608 524.032c14.528-14.08 37.76-13.824 51.968 0.704l118.528 121.792 267.776-270.72c14.272-14.464 37.568-14.592 51.968-0.32C773.184 389.888 773.312 413.12 759.104 427.52L759.104 427.52zM759.104 427.52" />

</svg>
