<?xml version="1.0" encoding="utf-8"?>
<!DOCTYPE svg PUBLIC "-//W3C//DTD SVG 1.1//EN" "http://www.w3.org/Graphics/SVG/1.1/DTD/svg11.dtd">
<svg style="width:308px;height:308px;" version="1.1" id="图形" xmlns="http://www.w3.org/2000/svg" xmlns:xlink="http://www.w3.org/1999/xlink" x="0px" y="0px" width="1024px" height="1024px" viewBox="0 0 1024 1024" enable-background="new 0 0 1024 1024" xml:space="preserve">
  <path class="svgpath" data-index="path_0" fill="#a9b7b7" d="M696.94464 384.22016m-82.62656 0a32.276 32.276 0 1 0 165.25312 0 32.276 32.276 0 1 0 -165.25312 0Z" />
<path class="svgpath" data-index="path_1" fill="#a9b7b7" d="M511.02976 33.05216C248.64512 33.05216 35.92192 245.76512 35.92192 508.16c0 262.40768 212.7232 475.10784 475.10784 475.10784S986.1376 770.56768 986.1376 508.16C986.1376 245.76512 773.4144 33.05216 511.02976 33.05216zM511.02976 74.36288c239.56992 0 433.79456 194.2272 433.79456 433.79712 0 93.4144-29.53472 179.93216-79.7696 250.73152l-147.456-147.45088-123.93984 123.94752-227.2256-227.23072-225.82528 225.84576c-40.19712-65.78688-63.3728-143.10656-63.3728-225.84576C77.23776 268.59008 271.45984 74.36288 511.02976 74.36288zM165.78304 770.78528l200.6784-200.6528L696.32 899.97312c0.11264 0.13056 0.19968 0.23296 0.3072 0.35584-56.27136 26.67776-119.18848 41.6256-185.59744 41.6256C370.18112 941.952 245.02784 874.80064 165.78304 770.78528zM736.86272 878.58688l-112.20992-112.2176 92.9536-92.95616 120.11008 120.12032C808.68864 826.73664 774.68672 855.48032 736.86272 878.58688z" />

</svg>
