<?xml version="1.0" encoding="utf-8"?>
<!DOCTYPE svg PUBLIC "-//W3C//DTD SVG 1.1//EN" "http://www.w3.org/Graphics/SVG/1.1/DTD/svg11.dtd">
<svg style="width:308px;height:308px;" version="1.1" id="图形" xmlns="http://www.w3.org/2000/svg" xmlns:xlink="http://www.w3.org/1999/xlink" x="0px" y="0px" width="1024px" height="1024px" viewBox="0 0 1024 1024" enable-background="new 0 0 1024 1024" xml:space="preserve">
  <path class="svgpath" data-index="path_0" fill="#272636" d="M431.859263 581.104891c127.211287 0 230.354412-103.141078 230.354412-230.354412 0-127.211287-103.143125-230.352365-230.354412-230.352365-127.21231 0-230.354412 103.141078-230.354412 230.352365C201.504852 477.963813 304.64593 581.104891 431.859263 581.104891L431.859263 581.104891 431.859263 581.104891zM798.804586 539.353998c42.24822-36.869722 68.251454-91.421152 68.251454-150.989853 0-86.292342-54.55143-162.056909-134.027529-188.759061-18.08796-6.096858-37.681204 3.643993-43.753503 21.729907-6.096858 18.086937 3.64297 37.680181 21.73093 43.753503 51.356668 17.277502 86.945211 66.699098 86.945211 123.275651 0 56.779168-35.837206 106.336864-87.463004 123.43324-7.018857 2.317789-12.778024 6.681166-16.873296 12.19167-3.552919 4.116761-6.184863 9.135054-7.489578 14.802124-4.27435 18.60473 7.333012 37.140898 25.915229 41.436738 104.131639 23.980157 179.558515 119.15889 179.558515 230.17431 0 19.077497 15.477506 34.55398 34.55398 34.55398s34.552957-15.476483 34.552957-34.55398C960.705953 693.852768 896.009466 590.553077 798.804586 539.353998L798.804586 539.353998zM431.859263 512c-89.060385 0-161.247474-72.189136-161.247474-161.249521 0-89.058338 72.187089-161.247474 161.247474-161.247474 89.059362 0 161.247474 72.189136 161.247474 161.247474C593.106738 439.810864 520.918625 512 431.859263 512L431.859263 512zM777.391904 869.047906c0-197.196221-159.853731-357.047906-357.048929-357.047906S63.293023 671.851685 63.293023 869.047906c0 19.076474 15.45397 34.55398 34.55398 34.55398 19.097964 0 34.551934-15.477506 34.551934-34.55398 0-159.019737 128.921231-287.943015 287.943015-287.943015S708.284967 710.028169 708.284967 869.047906c0 19.076474 15.47546 34.55398 34.551934 34.55398S777.391904 888.12438 777.391904 869.047906L777.391904 869.047906z" />

</svg>
