<?xml version="1.0" encoding="utf-8"?>
<!DOCTYPE svg PUBLIC "-//W3C//DTD SVG 1.1//EN" "http://www.w3.org/Graphics/SVG/1.1/DTD/svg11.dtd">
<svg style="width:308px;height:308px;" version="1.1" id="图形" xmlns="http://www.w3.org/2000/svg" xmlns:xlink="http://www.w3.org/1999/xlink" x="0px" y="0px" width="1024px" height="1024px" viewBox="0 0 1024 1024" enable-background="new 0 0 1024 1024" xml:space="preserve">
  <path class="svgpath" data-index="path_0" fill="#272636" d="M512 795.487232m-61.44 0a60 60 0 1 0 122.88 0 60 60 0 1 0 -122.88 0Z" />
<path class="svgpath" data-index="path_1" fill="#272636" d="M923.693056 402.071552l0.60928-0.608256c4.625408 7.028736 12.576768 11.674624 21.614592 11.674624 14.276608 0 25.859072-11.58144 25.859072-25.858048 0-9.043968-4.645888-16.995328-11.6736-21.61664l0.2048-0.2048C848.940032 243.29728 688.516096 166.63552 510.186496 166.63552c-178.19136 0-338.49856 76.540928-449.856512 198.53312l0.186368 0.186368C54.238208 370.072576 50.176 377.57952 50.176 386.03776c0 14.276608 11.582464 25.858048 25.859072 25.858048 8.454144 0 15.962112-4.062208 20.680704-10.340352l0.223232 0.224256c101.960704-112.652288 249.335808-183.427072 413.244416-183.427072C674.234368 218.35264 821.722112 289.251328 923.693056 402.071552z" />
<path class="svgpath" data-index="path_2" fill="#272636" d="M760.752128 600.487936c4.501504 7.61344 12.78976 12.725248 22.269952 12.725248 14.275584 0 25.859072-11.582464 25.859072-25.858048 0-7.743488-3.407872-14.68416-8.798208-19.423232l0.477184-0.47616c-69.855232-82.048-173.896704-134.094848-290.097152-134.094848-116.201472 0-220.242944 52.0448-290.096128 134.093824-5.709824 4.743168-9.348096 11.89376-9.348096 19.899392 0 14.275584 11.582464 25.858048 25.858048 25.858048 8.000512 0 15.153152-3.639296 19.897344-9.34912l0.301056 0.301056c60.36992-72.749056 151.46496-119.08608 253.387776-119.08608C610.658304 485.076992 700.387328 529.857536 760.752128 600.487936z" />

</svg>
