<?xml version="1.0" encoding="utf-8"?>
<!DOCTYPE svg PUBLIC "-//W3C//DTD SVG 1.1//EN" "http://www.w3.org/Graphics/SVG/1.1/DTD/svg11.dtd">
<svg style="width:308px;height:308px;" version="1.1" id="图形" xmlns="http://www.w3.org/2000/svg" xmlns:xlink="http://www.w3.org/1999/xlink" x="0px" y="0px" width="1024px" height="1024px" viewBox="0 0 1024 1024" enable-background="new 0 0 1024 1024" xml:space="preserve">
  <path class="svgpath" data-index="path_0" fill="#272636" d="M511.63775 64.108087c-247.242034 0-447.671902 200.429869-447.671902 447.673949 0 247.242034 200.429869 447.671902 447.671902 447.671902s447.671902-200.429869 447.671902-447.671902C959.309652 264.537955 758.879784 64.108087 511.63775 64.108087zM511.63775 923.640268c-227.463572 0-411.858232-184.395684-411.858232-411.858232 0-227.463572 184.39466-411.860279 411.858232-411.860279 227.462548 0 411.858232 184.395684 411.858232 411.860279C923.495982 739.243561 739.099275 923.640268 511.63775 923.640268zM592.21902 270.03311 350.474187 511.779989l241.742786 241.74074 26.860764-26.861788L404.196739 511.779989l214.883045-214.886115L592.21902 270.03311z" />

</svg>
