<?xml version="1.0" encoding="utf-8"?>
<!DOCTYPE svg PUBLIC "-//W3C//DTD SVG 1.1//EN" "http://www.w3.org/Graphics/SVG/1.1/DTD/svg11.dtd">
<svg style="width:308px;height:308px;" version="1.1" id="图形" xmlns="http://www.w3.org/2000/svg" xmlns:xlink="http://www.w3.org/1999/xlink" x="0px" y="0px" width="1024px" height="1024px" viewBox="0 0 1024 1024" enable-background="new 0 0 1024 1024" xml:space="preserve">
  <path class="svgpath" data-index="path_0" fill="#272636" d="M301.255205 331.37213l-55.19509 0c13.328563-167.221536 102.000092-255.888971 265.940908-265.923512 170.602539 6.742565 259.19732 83.649142 265.938861 230.801597 0 80.278371-45.160549 160.559812-135.479601 240.838184-70.247924 60.20929-105.372909 115.40131-105.372909 165.575036l0 45.156456-55.19509 0 0-60.207243c0-56.838519 40.144302-120.41858 120.426767-190.664457 80.283488-73.53683 120.425743-140.487661 120.425743-200.697975-6.744611-110.383016-71.974241-168.867012-195.690938-175.609577C393.220756 127.382179 317.953516 197.62601 301.255205 331.37213zM537.088398 853.185636l0 105.365746-55.19509 0L481.893308 853.185636 537.088398 853.185636z" />

</svg>
